# xmcd
#
# Track frame offsets:
#	150
#	12417
#	29302
#	41135
#	49830
#	69132
#	86240
#	104455
#	122600
#	138732
#	158630
#	175310
#	188157
#	199860
#	219575
#
# Disc length: 3286
#
# Revision: 3
# Processed by: cddbd v1.5.1PL0 Copyright (c) Steve Scherf et al.
# Submitted via: CDex 1.40Beta8
# Normalized: r2:DSETVAR1,TDELIM( - )
#
DISCID=d60cd40f
DTITLE=Various Artist - Cookin' With The Blues I
DYEAR=1900
DGENRE=Blues
TTITLE0=Buddy Guy - Yoy Sure Can't Do
TTITLE1=Billy Boy Arnold with Tony McPhee - Catfish
TTITLE2=Johnny 'Guitar Watson - One Room Country Shack
TTITLE3=Earl Hooker - The Foxtrot
TTITLE4=Byther Smith - I Don't Like To Travel
TTITLE5=Albert Collins - Deep Freeze
TTITLE6=Roy Gaines and The Crusaders - Hell Of A Night
TTITLE7=Tommy Tucker - Hi Heel Sneakers
TTITLE8=Greg 'Fingers Taylor - Dixie Diner
TTITLE9=Chigao Blues Summit with Sunnyland Slim, The - Can't Stop
TTITLE10=Billy Boy Arnold - Back Door Friend
TTITLE11=Paul Orta and The Kingfins - Up The Line
TTITLE12=Little Milton - Long Distance Operator
TTITLE13=Fenton Robinson - Somebody Loan Me A Dime
TTITLE14=Joe Carter - Stormy Monday
EXTD=ID3G: 0
EXTT0=
EXTT1=
EXTT2=
EXTT3=
EXTT4=
EXTT5=
EXTT6=
EXTT7=
EXTT8=
EXTT9=
EXTT10=
EXTT11=
EXTT12=
EXTT13=
EXTT14=
PLAYORDER=
